# xmcd
#
# Track frame offsets: 
#        150
#        13640
#        29552
#        46905
#        62852
#        80895
#        106220
#        123162
#        140545
#        162945
#        181000
#        195305
#        216520
#        230727
#        249135
#        269770
#
# Disc length: 3864 seconds
#
# Revision: 2
# Processed by: cddbd v1.5.2PL0 Copyright (c) Steve Scherf et al.
# Submitted via: ExactAudioCopyFreeDBPlugin 1.0
#
DISCID=e20f1610
DTITLE=Compilation - 〜the most relaxing〜feelchristmas
DYEAR=2004
DGENRE=New Age
TTITLE0=Sarah Brightman - Ave Maria
TTITLE1=libera - Stay With Me
TTITLE2=amin - 星に願いを
TTITLE3=鈴木慶江 - G線上のアリア〜君は花のごとく〜
TTITLE4=押尾コータロー - Last Christmas
TTITLE5=saigenji - Amapola
TTITLE6=小野リサ - White Christmas
TTITLE7=マキシム - Merry Christmas, Mr. Lawrence
TTITLE8=千住真理子 - Ave Maria
TTITLE9=小林 桂 - The Christmas Song
TTITLE10=千住 明 - クリスマスの夜に(sketchpiano ver.)
TTITLE11=寺井尚子 - lonely Christmas
TTITLE12=ホリー・コール - クリスマスを我が家で
TTITLE13=武部聡志 - A HAPPY NEW YEAR
TTITLE14=姫神 - 聖夜の祭詩
TTITLE15=チェン・ミン - Amazing Grace
EXTD=YEAR: 2004/11/10
EXTT0=
EXTT1=
EXTT2=
EXTT3=
EXTT4=
EXTT5=
EXTT6=
EXTT7=
EXTT8=
EXTT9=
EXTT10=
EXTT11=
EXTT12=
EXTT13=
EXTT14=
EXTT15=
PLAYORDER=
